<svg xmlns="http://www.w3.org/2000/svg" viewBox="0 0 30 30" class="sc-5feff41b-0 cmCbRr"><path fill="#2f2f2f" d="M15 27C8.4 27 3 21.6 3 15S8.4 3 15 3s12 5.4 12 12-5.4 12-12 12m5.3-12.3c1.9 0 3.5-1.6 3.4-3.5s-1.6-3.5-3.5-3.4c-1.9 0-3.4 1.5-3.4 3.4 0 2 1.5 3.5 3.5 3.5q-.15 0 0 0m-10.5.6c-1.9 0-3.5 1.6-3.4 3.5s1.6 3.5 3.5 3.4c1.9 0 3.4-1.5 3.4-3.4 0-2-1.6-3.5-3.5-3.5m8.6 8.5c1.9 0 3.5-1.5 3.5-3.4s-1.5-3.5-3.4-3.5-3.5 1.5-3.5 3.4 1.5 3.5 3.4 3.5M8 9.6c0 1.9 1.5 3.5 3.5 3.5 1.9 0 3.5-1.5 3.5-3.5s-1.5-3.5-3.5-3.5C9.5 6.2 8 7.7 8 9.6m8.5 5.5c0-.9-.7-1.6-1.6-1.6s-1.6.7-1.6 1.6.7 1.6 1.6 1.6 1.6-.7 1.6-1.6m11.6-1.9c.3-.9.5-1.8.8-2.8.5-2-.5-4.1-2.4-4.9-1.1-.4-2.2-.7-3.3-1 2.6 2.2 4.4 5.3 4.9 8.7m-2.7 9.9c-.6.6-1.1 1.2-1.8 1.8-.6.5-1.3 1-2 1.5-.7.4-1.5.8-2.3 1-.8.3-1.6.5-2.4.7.9.2 1.8.5 2.6.7 1.9.5 3.9-.5 4.8-2.3.4-1.1.8-2.2 1.1-3.4m-15-21.8c-2.3-.6-4.6.8-5.2 3-.1.5-.3 1-.4 1.5l-.2.8c2.1-2.5 5.1-4.1 8.3-4.7-.9-.2-1.7-.4-2.5-.6M1.1 19.5c-.5 1.8.3 3.8 2 4.7 1.1.5 2.2.8 3.4 1-2.5-2-4.3-4.9-4.8-8.1q-.3 1.35-.6 2.4"></path></svg>