<svg xmlns="http://www.w3.org/2000/svg" fill="none" viewBox="0 0 16 16" class="sc-5feff41b-0 hAPjjK"><path fill="#48C7F4" fill-rule="evenodd" d="M10.644 2.81c-.005-.711-.608-1.29-1.352-1.29s-1.347.576-1.351 1.29v.616c-.007 1.42-1.181 2.579-2.614 2.579A2.6 2.6 0 0 1 2.712 3.47v-.582a1.28 1.28 0 0 0-.407-.9 1.39 1.39 0 0 0-.949-.372 1.4 1.4 0 0 0-.949.371c-.252.238-.4.56-.407.9v.625A5.1 5.1 0 0 0 1.581 7.11c.49.476 1.072.852 1.716 1.11.227.091.464.167.7.227l-.01.36c-.007.244-.014 2.287-.014 2.512 0 2.581 2.19 4.682 4.883 4.682 2.493 0 4.557-1.803 4.848-4.12a3.65 3.65 0 0 0 1.231-.776A3.4 3.4 0 0 0 16 8.642c0-.689-.214-1.363-.612-1.936a3.6 3.6 0 0 0-1.631-1.283A3.76 3.76 0 0 0 9.9 6.08c.487-.791.75-1.7.75-2.634v-.63h-.004zm-3.97 5.627-.014.424c-.007.19-.014 2.159-.014 2.452.007.556.244 1.088.655 1.479s.97.609 1.55.609 1.138-.22 1.55-.61c.275-.26.47-.584.573-.935a3.6 3.6 0 0 1-.633-.325 3.5 3.5 0 0 1-1.34-1.565 3.35 3.35 0 0 1-.207-2.014c.066-.318.178-.625.33-.911l-.039.037a5.2 5.2 0 0 1-1.722 1.128 5 5 0 0 1-.694.226z" clip-rule="evenodd"></path><path fill="#2D3847" d="M9.512 2.872v.58c0 1.081-.444 2.117-1.233 2.888a4.1 4.1 0 0 1-1.347.883 4.3 4.3 0 0 1-3.202.009 4.2 4.2 0 0 1-1.354-.874A4.04 4.04 0 0 1 1.125 3.51v-.604a.2.2 0 0 1 .07-.14.24.24 0 0 1 .153-.058c.057 0 .111.02.152.058a.2.2 0 0 1 .071.14v.596c.039 1.987 1.718 3.605 3.747 3.605s3.739-1.64 3.748-3.659V2.86a.2.2 0 0 1 .07-.14.24.24 0 0 1 .153-.058c.057 0 .111.02.152.058a.2.2 0 0 1 .07.14v.013M5.318 8.646a.222.222 0 0 0-.205.131.212.212 0 0 0 .164.291.2.2 0 0 0 .13-.013.23.23 0 0 0 .1-.078.2.2 0 0 0 .018-.2.2.2 0 0 0-.047-.069.23.23 0 0 0-.16-.062m7.097-.625a.7.7 0 0 0-.368.107.64.64 0 0 0-.244.284.62.62 0 0 0 .143.692.7.7 0 0 0 .34.173c.13.025.261.011.382-.035a.67.67 0 0 0 .298-.234.616.616 0 0 0-.082-.802.701.701 0 0 0-.471-.187zm.2 3.313c0-.018 0-.147.003-.334.009-1.325.011-1.81.009-1.86l-.446.026c.004.085-.005 1.31-.01 1.832 0 .187-.002.318-.002.336 0 .844-.35 1.654-.971 2.252a3.4 3.4 0 0 1-2.348.931c-.88 0-1.725-.335-2.348-.931a3.12 3.12 0 0 1-.972-2.252c0-.245.007-2.266.014-2.484l-.446.005a295 295 0 0 0-.014 2.479c0 .473.098.944.287 1.382s.466.836.817 1.172.764.603 1.221.783c.458.182.947.275 1.443.275s.985-.093 1.442-.275a3.8 3.8 0 0 0 1.222-.783c.35-.336.628-.734.817-1.172s.287-.907.287-1.382zm2.346-2.681c0-.485-.15-.96-.432-1.363a2.54 2.54 0 0 0-1.15-.905 2.67 2.67 0 0 0-1.478-.14 2.6 2.6 0 0 0-1.31.671c-.358.343-.601.78-.701 1.256-.098.476-.048.97.145 1.419.194.449.521.831.942 1.1a2.64 2.64 0 0 0 3.231-.307 2.4 2.4 0 0 0 .75-1.734zm-.446 0c0 .4-.123.791-.355 1.124a2.1 2.1 0 0 1-.949.747c-.386.154-.81.194-1.221.116a2.15 2.15 0 0 1-1.083-.554 2 2 0 0 1-.578-1.038c-.082-.393-.039-.8.12-1.171.16-.372.43-.687.778-.91a2.18 2.18 0 0 1 2.667.252c.396.38.619.893.619 1.431z"></path><path fill="#48C7F4" fill-rule="evenodd" d="M10.644 2.81c-.005-.711-.608-1.29-1.352-1.29s-1.347.576-1.351 1.29v.616c-.007 1.42-1.181 2.579-2.614 2.579A2.6 2.6 0 0 1 2.712 3.47v-.582a1.28 1.28 0 0 0-.407-.9 1.39 1.39 0 0 0-.949-.372 1.4 1.4 0 0 0-.949.371c-.252.238-.4.56-.407.9v.625A5.1 5.1 0 0 0 1.581 7.11c.49.476 1.072.852 1.716 1.11.227.091.464.167.7.227l-.01.36c-.007.244-.014 2.287-.014 2.512 0 2.581 2.19 4.682 4.883 4.682 2.493 0 4.557-1.803 4.848-4.12a3.65 3.65 0 0 0 1.231-.776A3.4 3.4 0 0 0 16 8.642c0-.689-.214-1.363-.612-1.936a3.6 3.6 0 0 0-1.631-1.283A3.76 3.76 0 0 0 9.9 6.08c.487-.791.75-1.7.75-2.634v-.63h-.004zm-3.97 5.627-.014.424c-.007.19-.014 2.159-.014 2.452.007.556.244 1.088.655 1.479s.97.609 1.55.609 1.138-.22 1.55-.61c.275-.26.47-.584.573-.935a3.6 3.6 0 0 1-.633-.325 3.5 3.5 0 0 1-1.34-1.565 3.35 3.35 0 0 1-.207-2.014c.066-.318.178-.625.33-.911l-.039.037a5.2 5.2 0 0 1-1.722 1.128 5 5 0 0 1-.694.226z" clip-rule="evenodd"></path><path fill="#10357F" d="M9.512 2.872v.58c0 1.081-.444 2.117-1.233 2.888a4.1 4.1 0 0 1-1.347.883 4.3 4.3 0 0 1-3.202.009 4.2 4.2 0 0 1-1.354-.874A4.04 4.04 0 0 1 1.125 3.51v-.604a.2.2 0 0 1 .07-.14.24.24 0 0 1 .153-.058c.057 0 .111.02.152.058a.2.2 0 0 1 .071.14v.596c.039 1.987 1.718 3.605 3.747 3.605s3.739-1.64 3.748-3.659V2.86a.2.2 0 0 1 .07-.14.24.24 0 0 1 .153-.058c.057 0 .111.02.152.058a.2.2 0 0 1 .07.14v.013M5.318 8.646a.222.222 0 0 0-.205.131.212.212 0 0 0 .164.291.2.2 0 0 0 .13-.013.23.23 0 0 0 .1-.078.2.2 0 0 0 .018-.2.2.2 0 0 0-.047-.069.23.23 0 0 0-.16-.062m7.097-.625a.7.7 0 0 0-.368.107.64.64 0 0 0-.244.284.62.62 0 0 0 .143.692.7.7 0 0 0 .34.173c.13.025.261.011.382-.035a.67.67 0 0 0 .298-.234.616.616 0 0 0-.082-.802.701.701 0 0 0-.471-.187zm.2 3.313c0-.018 0-.147.003-.334.009-1.325.011-1.81.009-1.86l-.446.026c.004.085-.005 1.31-.01 1.832 0 .187-.002.318-.002.336 0 .844-.35 1.654-.971 2.252a3.4 3.4 0 0 1-2.348.931c-.88 0-1.725-.335-2.348-.931a3.12 3.12 0 0 1-.972-2.252c0-.245.007-2.266.014-2.484l-.446.005a295 295 0 0 0-.014 2.479c0 .473.098.944.287 1.382s.466.836.817 1.172.764.603 1.221.783c.458.182.947.275 1.443.275s.985-.093 1.442-.275a3.8 3.8 0 0 0 1.222-.783c.35-.336.628-.734.817-1.172s.287-.907.287-1.382zm2.346-2.681c0-.485-.15-.96-.432-1.363a2.54 2.54 0 0 0-1.15-.905 2.67 2.67 0 0 0-1.478-.14 2.6 2.6 0 0 0-1.31.671c-.358.343-.601.78-.701 1.256-.098.476-.048.97.145 1.419.194.449.521.831.942 1.1a2.64 2.64 0 0 0 3.231-.307 2.4 2.4 0 0 0 .75-1.734zm-.446 0c0 .4-.123.791-.355 1.124a2.1 2.1 0 0 1-.949.747c-.386.154-.81.194-1.221.116a2.15 2.15 0 0 1-1.083-.554 2 2 0 0 1-.578-1.038c-.082-.393-.039-.8.12-1.171.16-.372.43-.687.778-.91a2.18 2.18 0 0 1 2.667.252c.396.38.619.893.619 1.431zM3.672 1.267A.64.64 0 0 0 4.32.634C4.32.284 4.03 0 3.672 0a.64.64 0 0 0-.649.634c0 .35.29.633.649.633M6.703 1.267a.64.64 0 0 0 .649-.633c0-.35-.29-.634-.649-.634a.64.64 0 0 0-.648.634c0 .35.29.633.648.633"></path></svg>