<svg xmlns="http://www.w3.org/2000/svg" fill="currentColor" viewBox="0 0 16 16" class="sc-5feff41b-0 iXwa-D"><path fill-rule="evenodd" d="M2.901 5.77c.596-2.616 2.823-3.938 5.101-3.936 2.278.001 4.505 1.326 5.097 3.943.705 3.113-1.224 5.807-3.045 7.556h-.001a2.96 2.96 0 0 1-4.113 0c-1.814-1.749-3.744-4.449-3.039-7.562M8.003.834c2.654.002 5.357 1.567 6.072 4.723.828 3.66-1.456 6.7-3.328 8.497a3.96 3.96 0 0 1-5.5.001C3.38 12.256 1.096 9.209 1.926 5.55 2.644 2.392 5.349.831 8.003.832M6.42 6.873a1.58 1.58 0 1 1 3.16 0 1.58 1.58 0 0 1-3.16 0M8 4.293a2.58 2.58 0 1 0 0 5.16 2.58 2.58 0 0 0 0-5.16" clip-rule="evenodd"></path></svg>